<svg xmlns="http://www.w3.org/2000/svg" viewBox="0 0 100 100" width="100" height="100">
  <path d="M 14 50 Q 4 30 12 18 Q 26 22 36 38 Q 42 46 38 56 Z"
        fill="#FFB7B7" stroke="#2C2C2C" stroke-width="3" stroke-linejoin="round"/>
  <path d="M 86 50 Q 96 30 88 18 Q 74 22 64 38 Q 58 46 62 56 Z"
        fill="#FFB7B7" stroke="#2C2C2C" stroke-width="3" stroke-linejoin="round"/>
  <path d="M 18 30 Q 28 32 32 42 M 16 42 Q 24 44 30 50 M 22 24 Q 28 26 32 34" stroke="#FFFFFF" stroke-width="2" fill="none" opacity="0.7"/>
  <path d="M 82 30 Q 72 32 68 42 M 84 42 Q 76 44 70 50 M 78 24 Q 72 26 68 34" stroke="#FFFFFF" stroke-width="2" fill="none" opacity="0.7"/>
  <text x="14" y="22" font-size="14" fill="#FF89A7" font-weight="bold">✦</text>
  <text x="78" y="22" font-size="14" fill="#FF89A7" font-weight="bold">✦</text>
  <ellipse cx="22" cy="32" rx="3" ry="5" fill="#FFFFFF" opacity="0.5" transform="rotate(-30 22 32)"/>
  <ellipse cx="78" cy="32" rx="3" ry="5" fill="#FFFFFF" opacity="0.5" transform="rotate(30 78 32)"/>
</svg>
