<svg xmlns="http://www.w3.org/2000/svg" viewBox="0 0 100 100" width="100" height="100">
  <path d="M 14 36 Q 50 20 86 36 Q 90 50 86 60 Q 50 50 14 60 Q 10 50 14 36 Z"
        fill="#FFB7B7" stroke="#2C2C2C" stroke-width="3" stroke-linejoin="round"/>
  <path d="M 16 56 Q 50 56 84 56" stroke="#FF89A7" stroke-width="2" fill="none"/>
  <path d="M 22 44 Q 50 38 78 44" stroke="#FFFFFF" stroke-width="2" fill="none" opacity="0.7"/>
  <path d="M 24 60 Q 18 78 14 90 L 28 86 L 26 76 Z"
        fill="#FF89A7" stroke="#2C2C2C" stroke-width="2.5" stroke-linejoin="round"/>
  <path d="M 76 60 Q 82 78 86 90 L 72 86 L 74 76 Z"
        fill="#FF89A7" stroke="#2C2C2C" stroke-width="2.5" stroke-linejoin="round"/>
  <line x1="14" y1="78" x2="22" y2="80" stroke="#FFFFFF" stroke-width="1.5" opacity="0.6"/>
  <line x1="78" y1="80" x2="86" y2="78" stroke="#FFFFFF" stroke-width="1.5" opacity="0.6"/>
  <circle cx="50" cy="42" r="3" fill="#FFEC8B" stroke="#2C2C2C" stroke-width="1.5"/>
</svg>
