<svg xmlns="http://www.w3.org/2000/svg" viewBox="0 0 100 100" width="100" height="100">
  <path d="M 30 50 Q 25 42 28 35 Q 35 32 42 38 Q 47 44 50 52 Z" fill="#FFB7B7" stroke="#FF89A7" stroke-width="2"/>
  <path d="M 70 50 Q 75 42 72 35 Q 65 32 58 38 Q 53 44 50 52 Z" fill="#FFB7B7" stroke="#FF89A7" stroke-width="2"/>
  <ellipse cx="50" cy="50" rx="6" ry="5" fill="#FF89A7" stroke="#B23A48" stroke-width="1.5"/>
  <path d="M 47 55 Q 44 65 42 75" fill="none" stroke="#FF89A7" stroke-width="2.5" stroke-linecap="round"/>
  <path d="M 53 55 Q 56 65 58 75" fill="none" stroke="#FF89A7" stroke-width="2.5" stroke-linecap="round"/>
  <ellipse cx="42" cy="76" rx="3" ry="1.2" fill="#FFB7B7" stroke="#FF89A7" stroke-width="1"/>
  <ellipse cx="58" cy="76" rx="3" ry="1.2" fill="#FFB7B7" stroke="#FF89A7" stroke-width="1"/>
  <ellipse cx="42" cy="40" rx="3" ry="2" fill="#FFFFFF" opacity="0.6"/>
  <ellipse cx="58" cy="40" rx="3" ry="2" fill="#FFFFFF" opacity="0.6"/>
</svg>
