<svg xmlns="http://www.w3.org/2000/svg" viewBox="0 0 200 200" width="200" height="200" preserveAspectRatio="xMidYMid slice">
  <defs>
    <linearGradient id="sky" x1="0%" y1="0%" x2="0%" y2="100%">
      <stop offset="0%" stop-color="#A8DEFF"/>
      <stop offset="100%" stop-color="#D8F0FF"/>
    </linearGradient>
    <linearGradient id="ground" x1="0%" y1="0%" x2="0%" y2="100%">
      <stop offset="0%" stop-color="#8FD68F"/>
      <stop offset="100%" stop-color="#6BCB77"/>
    </linearGradient>
  </defs>
  <rect x="0" y="0" width="200" height="140" fill="url(#sky)"/>
  <rect x="0" y="140" width="200" height="60" fill="url(#ground)"/>
  <ellipse cx="50" cy="50" rx="22" ry="10" fill="#FFFFFF" opacity="0.95"/>
  <ellipse cx="65" cy="48" rx="15" ry="8" fill="#FFFFFF" opacity="0.95"/>
  <ellipse cx="155" cy="35" rx="18" ry="8" fill="#FFFFFF" opacity="0.95"/>
  <ellipse cx="145" cy="38" rx="12" ry="6" fill="#FFFFFF" opacity="0.95"/>
  <circle cx="170" cy="60" r="14" fill="#FFEC8B"/>
  <circle cx="170" cy="60" r="10" fill="#FFD86B"/>
  <line x1="170" y1="35" x2="170" y2="42" stroke="#FFD86B" stroke-width="3" stroke-linecap="round"/>
  <line x1="148" y1="60" x2="155" y2="60" stroke="#FFD86B" stroke-width="3" stroke-linecap="round"/>
  <line x1="155" y1="42" x2="160" y2="47" stroke="#FFD86B" stroke-width="3" stroke-linecap="round"/>
  <path d="M 0 145 L 5 135 L 10 145 M 12 142 L 16 132 L 20 142 M 22 145 L 26 138 L 30 145" stroke="#3FA34D" stroke-width="2" fill="none"/>
  <path d="M 50 145 L 54 137 L 58 145 M 60 143 L 64 134 L 68 143 M 80 145 L 84 138 L 88 145" stroke="#3FA34D" stroke-width="2" fill="none"/>
  <path d="M 110 145 L 114 137 L 118 145 M 130 143 L 134 134 L 138 143 M 160 145 L 164 138 L 168 145 M 180 144 L 184 136 L 188 144" stroke="#3FA34D" stroke-width="2" fill="none"/>
  <ellipse cx="40" cy="170" rx="8" ry="3" fill="#FFB7B7"/>
  <ellipse cx="42" cy="168" rx="3" ry="2" fill="#FFFFFF"/>
  <ellipse cx="160" cy="180" rx="10" ry="3" fill="#FFFFFF"/>
  <ellipse cx="162" cy="178" rx="4" ry="2" fill="#FFD86B"/>
</svg>
