<svg xmlns="http://www.w3.org/2000/svg" viewBox="0 0 200 200" width="200" height="200">
  <ellipse cx="100" cy="125" rx="52" ry="52" fill="#FFD86B" stroke="#2C2C2C" stroke-width="4"/>
  <path d="M 145 110 L 175 95 L 170 115 L 180 130 L 165 135 L 170 155 L 150 150" fill="#FFB7B7" stroke="#2C2C2C" stroke-width="3" stroke-linejoin="round"/>
  <path d="M 170 100 L 178 100 M 175 105 L 183 105 M 175 130 L 183 130 M 173 145 L 180 142" stroke="#6BCBFF" stroke-width="3" stroke-linecap="round"/>
  <path d="M 173 95 L 178 95 M 178 130 L 184 132 M 175 150 L 180 152" stroke="#6BCB77" stroke-width="3" stroke-linecap="round"/>
  <circle cx="100" cy="65" r="38" fill="#FFD86B" stroke="#2C2C2C" stroke-width="4"/>
  <path d="M 65 30 Q 70 18 80 26 Q 90 14 100 22 Q 110 14 120 26 Q 130 18 135 30 L 132 42 L 100 36 L 68 42 Z" fill="#B23A48" stroke="#2C2C2C" stroke-width="3" stroke-linejoin="round"/>
  <path d="M 78 60 L 92 64" stroke="#2C2C2C" stroke-width="3" stroke-linecap="round"/>
  <path d="M 108 64 L 122 60" stroke="#2C2C2C" stroke-width="3" stroke-linecap="round"/>
  <circle cx="86" cy="70" r="5" fill="#2C2C2C"/>
  <circle cx="114" cy="70" r="5" fill="#2C2C2C"/>
  <circle cx="87" cy="68" r="2" fill="#FFFFFF"/>
  <circle cx="115" cy="68" r="2" fill="#FFFFFF"/>
  <text x="78" y="63" font-size="8" fill="#FFB7B7">✦</text>
  <text x="118" y="63" font-size="8" fill="#FFB7B7">✦</text>
  <polygon points="93,82 107,82 100,90" fill="#FF9F43" stroke="#2C2C2C" stroke-width="2"/>
  <path d="M 86 96 Q 100 105 100 100 Q 100 105 114 96" fill="#B23A48" stroke="#2C2C2C" stroke-width="2.5" stroke-linejoin="round"/>
  <ellipse cx="40" cy="115" rx="12" ry="18" fill="#2C2C2C" stroke="#2C2C2C" stroke-width="2"/>
  <line x1="40" y1="133" x2="38" y2="160" stroke="#2C2C2C" stroke-width="3" stroke-linecap="round"/>
  <line x1="42" y1="105" x2="48" y2="100" stroke="#FFD86B" stroke-width="3"/>
  <ellipse cx="50" cy="115" rx="12" ry="20" fill="#FFD86B" stroke="#2C2C2C" stroke-width="3" transform="rotate(-10 50 115)"/>
  <line x1="92" y1="172" x2="92" y2="184" stroke="#FF9F43" stroke-width="4" stroke-linecap="round"/>
  <line x1="108" y1="172" x2="108" y2="184" stroke="#FF9F43" stroke-width="4" stroke-linecap="round"/>
  <text x="50" y="40" font-size="14" fill="#FFB7B7">♪</text>
  <text x="135" y="55" font-size="16" fill="#6BCBFF">♫</text>
  <text x="22" y="70" font-size="13" fill="#FFD86B">♩</text>
</svg>
