<svg xmlns="http://www.w3.org/2000/svg" viewBox="0 0 200 200" width="200" height="200">
  <ellipse cx="100" cy="120" rx="55" ry="55" fill="#FFD86B" stroke="#2C2C2C" stroke-width="4"/>
  <ellipse cx="80" cy="115" rx="10" ry="14" fill="#FFC640" stroke="#2C2C2C" stroke-width="2"/>
  <ellipse cx="120" cy="115" rx="10" ry="14" fill="#FFC640" stroke="#2C2C2C" stroke-width="2"/>
  <circle cx="100" cy="65" r="38" fill="#FFD86B" stroke="#2C2C2C" stroke-width="4"/>
  <path d="M 60 50 L 140 50 L 145 60 L 130 58 L 145 70 L 55 70 L 70 58 L 55 60 Z" fill="#B23A48" stroke="#2C2C2C" stroke-width="3" stroke-linejoin="round"/>
  <line x1="80" y1="60" x2="120" y2="60" stroke="#FFFFFF" stroke-width="2" stroke-dasharray="3 2"/>
  <path d="M 88 60 L 92 65 L 88 70 M 112 60 L 108 65 L 112 70" stroke="#2C2C2C" stroke-width="2" fill="none" stroke-linecap="round" transform="translate(0 6)"/>
  <line x1="80" y1="76" x2="92" y2="74" stroke="#2C2C2C" stroke-width="3.5" stroke-linecap="round"/>
  <line x1="108" y1="74" x2="120" y2="76" stroke="#2C2C2C" stroke-width="3.5" stroke-linecap="round"/>
  <circle cx="86" cy="80" r="3" fill="#2C2C2C"/>
  <circle cx="114" cy="80" r="3" fill="#2C2C2C"/>
  <polygon points="93,86 107,86 100,95" fill="#FF9F43" stroke="#2C2C2C" stroke-width="2"/>
  <path d="M 88 102 L 100 96 L 112 102" fill="none" stroke="#2C2C2C" stroke-width="3" stroke-linecap="round"/>
  <ellipse cx="50" cy="120" rx="14" ry="14" fill="#B23A48" stroke="#2C2C2C" stroke-width="3"/>
  <ellipse cx="150" cy="120" rx="14" ry="14" fill="#B23A48" stroke="#2C2C2C" stroke-width="3"/>
  <ellipse cx="50" cy="120" rx="6" ry="6" fill="#FFFFFF" opacity="0.4"/>
  <ellipse cx="150" cy="120" rx="6" ry="6" fill="#FFFFFF" opacity="0.4"/>
  <line x1="92" y1="172" x2="92" y2="184" stroke="#FF9F43" stroke-width="5" stroke-linecap="round"/>
  <line x1="108" y1="172" x2="108" y2="184" stroke="#FF9F43" stroke-width="5" stroke-linecap="round"/>
  <text x="160" y="40" font-size="20" fill="#FFD86B" stroke="#2C2C2C" stroke-width="1" font-weight="bold">⚡</text>
</svg>
