<svg xmlns="http://www.w3.org/2000/svg" viewBox="0 0 200 200" width="200" height="200">
  <ellipse cx="100" cy="120" rx="50" ry="55" fill="#C7B370" stroke="#2C2C2C" stroke-width="4"/>
  <path d="M 55 85 L 50 75 M 65 75 L 62 65 M 78 70 L 80 60 M 130 75 L 135 65 M 145 80 L 150 70" stroke="#8B5A2B" stroke-width="3" stroke-linecap="round"/>
  <circle cx="100" cy="68" r="38" fill="#C7B370" stroke="#2C2C2C" stroke-width="4"/>
  <path d="M 70 35 L 75 50 M 85 28 L 88 42 M 100 25 L 100 40 M 115 28 L 112 42 M 130 35 L 125 50" stroke="#8B5A2B" stroke-width="3" stroke-linecap="round"/>
  <line x1="80" y1="60" x2="92" y2="68" stroke="#2C2C2C" stroke-width="3" stroke-linecap="round"/>
  <line x1="92" y1="60" x2="80" y2="68" stroke="#2C2C2C" stroke-width="3" stroke-linecap="round"/>
  <line x1="108" y1="60" x2="120" y2="68" stroke="#2C2C2C" stroke-width="3" stroke-linecap="round"/>
  <line x1="120" y1="60" x2="108" y2="68" stroke="#2C2C2C" stroke-width="3" stroke-linecap="round"/>
  <polygon points="92,80 108,80 100,90" fill="#A86A2A" stroke="#2C2C2C" stroke-width="2"/>
  <path d="M 88 100 Q 100 92 112 100" fill="none" stroke="#2C2C2C" stroke-width="3" stroke-linecap="round"/>
  <ellipse cx="55" cy="120" rx="13" ry="22" fill="#C7B370" stroke="#2C2C2C" stroke-width="3" transform="rotate(-25 55 120)"/>
  <ellipse cx="145" cy="120" rx="13" ry="22" fill="#C7B370" stroke="#2C2C2C" stroke-width="3" transform="rotate(20 145 120)"/>
  <line x1="92" y1="170" x2="90" y2="185" stroke="#A86A2A" stroke-width="3" stroke-linecap="round"/>
  <line x1="108" y1="170" x2="110" y2="185" stroke="#A86A2A" stroke-width="3" stroke-linecap="round"/>
</svg>
