<svg xmlns="http://www.w3.org/2000/svg" viewBox="0 0 200 200" width="200" height="200">
  <ellipse cx="100" cy="125" rx="75" ry="65" fill="#FFD86B" stroke="#2C2C2C" stroke-width="4"/>
  <circle cx="100" cy="68" r="42" fill="#FFD86B" stroke="#2C2C2C" stroke-width="4"/>
  <circle cx="85" cy="68" r="5" fill="#2C2C2C"/>
  <circle cx="115" cy="68" r="5" fill="#2C2C2C"/>
  <circle cx="86" cy="66" r="1.5" fill="#FFFFFF"/>
  <circle cx="116" cy="66" r="1.5" fill="#FFFFFF"/>
  <polygon points="93,82 107,82 100,92" fill="#FF9F43" stroke="#2C2C2C" stroke-width="2"/>
  <path d="M 88 95 Q 100 100 112 95" fill="none" stroke="#2C2C2C" stroke-width="3" stroke-linecap="round"/>
  <circle cx="70" cy="80" r="6" fill="#FFB7B7" opacity="0.7"/>
  <circle cx="130" cy="80" r="6" fill="#FFB7B7" opacity="0.7"/>
  <ellipse cx="40" cy="130" rx="14" ry="20" fill="#FFD86B" stroke="#2C2C2C" stroke-width="3" transform="rotate(-10 40 130)"/>
  <ellipse cx="160" cy="130" rx="14" ry="20" fill="#FFD86B" stroke="#2C2C2C" stroke-width="3" transform="rotate(10 160 130)"/>
  <line x1="92" y1="187" x2="92" y2="195" stroke="#FF9F43" stroke-width="5" stroke-linecap="round"/>
  <line x1="108" y1="187" x2="108" y2="195" stroke="#FF9F43" stroke-width="5" stroke-linecap="round"/>
</svg>
