<svg xmlns="http://www.w3.org/2000/svg" viewBox="0 0 200 200" width="200" height="200">
  <ellipse cx="100" cy="120" rx="55" ry="55" fill="#FFD86B" stroke="#2C2C2C" stroke-width="4"/>
  <path d="M 56 110 Q 64 105 70 112 M 78 116 Q 86 111 92 118 M 108 116 Q 116 111 122 118 M 130 110 Q 138 105 144 112" fill="none" stroke="#FF9F43" stroke-width="2.5" stroke-linecap="round"/>
  <circle cx="100" cy="65" r="38" fill="#FFD86B" stroke="#2C2C2C" stroke-width="4"/>
  <path d="M 60 48 L 140 48 L 145 58 L 130 58 L 138 68 L 62 68 L 70 58 L 55 58 Z" fill="#FFB7B7" stroke="#2C2C2C" stroke-width="3" stroke-linejoin="round"/>
  <text x="92" y="62" font-size="14" fill="#FFFFFF" font-weight="bold">✦</text>
  <text x="62" y="80" font-size="12" fill="#FFFFFF" opacity="0.7">♡</text>
  <text x="124" y="80" font-size="12" fill="#FFFFFF" opacity="0.7">♡</text>
  <circle cx="86" cy="70" r="5" fill="#2C2C2C"/>
  <circle cx="114" cy="70" r="5" fill="#2C2C2C"/>
  <circle cx="87" cy="67" r="2" fill="#FFFFFF"/>
  <circle cx="115" cy="67" r="2" fill="#FFFFFF"/>
  <ellipse cx="74" cy="80" rx="6" ry="3" fill="#FFB7B7" opacity="0.7"/>
  <ellipse cx="126" cy="80" rx="6" ry="3" fill="#FFB7B7" opacity="0.7"/>
  <polygon points="93,84 107,84 100,93" fill="#FF9F43" stroke="#2C2C2C" stroke-width="2"/>
  <path d="M 86 99 Q 100 110 114 99" fill="none" stroke="#2C2C2C" stroke-width="3" stroke-linecap="round"/>
  <ellipse cx="50" cy="120" rx="15" ry="15" fill="#FFB7B7" stroke="#2C2C2C" stroke-width="3"/>
  <ellipse cx="150" cy="120" rx="15" ry="15" fill="#FFB7B7" stroke="#2C2C2C" stroke-width="3"/>
  <text x="46" y="125" font-size="12" fill="#FFFFFF">♡</text>
  <text x="146" y="125" font-size="12" fill="#FFFFFF">♡</text>
  <ellipse cx="50" cy="118" rx="6" ry="4" fill="#FFFFFF" opacity="0.5"/>
  <ellipse cx="150" cy="118" rx="6" ry="4" fill="#FFFFFF" opacity="0.5"/>
  <line x1="92" y1="172" x2="92" y2="184" stroke="#FF9F43" stroke-width="5" stroke-linecap="round"/>
  <line x1="108" y1="172" x2="108" y2="184" stroke="#FF9F43" stroke-width="5" stroke-linecap="round"/>
  <text x="158" y="42" font-size="22" fill="#FFD86B" stroke="#FF9F43" stroke-width="0.5" font-weight="bold">✨</text>
  <text x="22" y="48" font-size="18" fill="#FFB7B7">♪</text>
  <text x="20" y="100" font-size="14" fill="#FFB7B7">♡</text>
</svg>
