<svg xmlns="http://www.w3.org/2000/svg" viewBox="0 0 200 200" width="200" height="200">
  <ellipse cx="100" cy="125" rx="45" ry="50" fill="#FFD86B" stroke="#2C2C2C" stroke-width="4"/>
  <circle cx="100" cy="75" r="42" fill="#FFD86B" stroke="#2C2C2C" stroke-width="4"/>
  <circle cx="85" cy="72" r="5" fill="#2C2C2C"/>
  <circle cx="115" cy="72" r="5" fill="#2C2C2C"/>
  <circle cx="86" cy="70" r="1.5" fill="#FFFFFF"/>
  <circle cx="116" cy="70" r="1.5" fill="#FFFFFF"/>
  <polygon points="93,86 107,86 100,95" fill="#FF9F43" stroke="#2C2C2C" stroke-width="2"/>
  <line x1="92" y1="100" x2="108" y2="100" stroke="#2C2C2C" stroke-width="3" stroke-linecap="round"/>
  <path d="M 65 110 Q 60 130 70 145" fill="#FFD86B" stroke="#2C2C2C" stroke-width="3" stroke-linejoin="round"/>
  <path d="M 135 110 Q 140 130 130 145" fill="#FFD86B" stroke="#2C2C2C" stroke-width="3" stroke-linejoin="round"/>
  <path d="M 90 168 L 88 178 L 80 180 L 88 182 M 90 168 L 90 180" stroke="#FF9F43" stroke-width="3" fill="none" stroke-linecap="round"/>
  <path d="M 110 168 L 112 178 L 120 180 L 112 182 M 110 168 L 110 180" stroke="#FF9F43" stroke-width="3" fill="none" stroke-linecap="round"/>
</svg>
