<svg xmlns="http://www.w3.org/2000/svg" viewBox="0 0 200 200" width="200" height="200">
  <defs>
    <radialGradient id="halo" cx="50%" cy="50%" r="50%">
      <stop offset="0%" stop-color="#FFEC8B" stop-opacity="0.9"/>
      <stop offset="100%" stop-color="#FFD86B" stop-opacity="0"/>
    </radialGradient>
  </defs>
  <circle cx="100" cy="100" r="95" fill="url(#halo)"/>
  <ellipse cx="100" cy="120" rx="50" ry="52" fill="#FFEC8B" stroke="#FF9F43" stroke-width="4"/>
  <circle cx="100" cy="68" r="38" fill="#FFEC8B" stroke="#FF9F43" stroke-width="4"/>
  <ellipse cx="100" cy="22" rx="32" ry="6" fill="none" stroke="#FFD86B" stroke-width="4"/>
  <ellipse cx="100" cy="22" rx="32" ry="6" fill="none" stroke="#FFFFFF" stroke-width="2" opacity="0.8"/>
  <path d="M 60 65 Q 65 50 70 60 M 40 75 Q 48 65 50 75 M 130 60 Q 135 50 140 65 M 150 75 Q 152 65 160 75" stroke="#FFFFFF" stroke-width="2.5" fill="none" stroke-linecap="round" opacity="0.9"/>
  <circle cx="88" cy="68" r="5" fill="#2C2C2C"/>
  <circle cx="112" cy="68" r="5" fill="#2C2C2C"/>
  <circle cx="89" cy="65" r="2" fill="#FFFFFF"/>
  <circle cx="113" cy="65" r="2" fill="#FFFFFF"/>
  <polygon points="93,82 107,82 100,92" fill="#FF9F43" stroke="#2C2C2C" stroke-width="2"/>
  <path d="M 85 96 Q 100 106 115 96" fill="none" stroke="#2C2C2C" stroke-width="3" stroke-linecap="round"/>
  <path d="M 50 110 L 30 100 L 35 120 L 25 130 L 50 130 Z" fill="#FFFFFF" stroke="#FF9F43" stroke-width="2.5" stroke-linejoin="round"/>
  <path d="M 150 110 L 170 100 L 165 120 L 175 130 L 150 130 Z" fill="#FFFFFF" stroke="#FF9F43" stroke-width="2.5" stroke-linejoin="round"/>
  <line x1="92" y1="170" x2="92" y2="180" stroke="#FF9F43" stroke-width="4" stroke-linecap="round"/>
  <line x1="108" y1="170" x2="108" y2="180" stroke="#FF9F43" stroke-width="4" stroke-linecap="round"/>
  <text x="60" y="55" font-size="14" fill="#FFFFFF" opacity="0.9">✦</text>
  <text x="135" y="50" font-size="12" fill="#FFFFFF" opacity="0.9">✦</text>
  <text x="155" y="155" font-size="14" fill="#FFFFFF" opacity="0.9">✦</text>
</svg>
