<svg xmlns="http://www.w3.org/2000/svg" viewBox="0 0 100 100" width="100" height="100">
  <circle cx="74" cy="26" r="14" fill="#FFEC8B" stroke="#FF9F43" stroke-width="3"/>
  <line x1="74" y1="6" x2="74" y2="12" stroke="#FF9F43" stroke-width="2.5" stroke-linecap="round"/>
  <line x1="74" y1="40" x2="74" y2="46" stroke="#FF9F43" stroke-width="2.5" stroke-linecap="round"/>
  <line x1="54" y1="26" x2="60" y2="26" stroke="#FF9F43" stroke-width="2.5" stroke-linecap="round"/>
  <line x1="88" y1="26" x2="94" y2="26" stroke="#FF9F43" stroke-width="2.5" stroke-linecap="round"/>
  <line x1="60" y1="12" x2="64" y2="16" stroke="#FF9F43" stroke-width="2.5" stroke-linecap="round"/>
  <line x1="84" y1="36" x2="88" y2="40" stroke="#FF9F43" stroke-width="2.5" stroke-linecap="round"/>
  <path d="M 8 60 Q 20 50 32 60 Q 44 70 56 60 Q 68 50 80 60 Q 92 70 100 60 L 100 92 L 8 92 Z"
        fill="#6BCBFF" stroke="#2C2C2C" stroke-width="3" stroke-linejoin="round"/>
  <path d="M 8 72 Q 22 64 36 72 Q 50 80 64 72 Q 78 64 92 72" stroke="#FFFFFF" stroke-width="2" fill="none" opacity="0.7"/>
  <path d="M 12 84 Q 28 78 42 84 Q 56 90 70 84 Q 82 78 96 84" stroke="#FFFFFF" stroke-width="2" fill="none" opacity="0.5"/>
  <ellipse cx="68" cy="22" rx="6" ry="3" fill="#FFFFFF" opacity="0.6"/>
</svg>
