<svg xmlns="http://www.w3.org/2000/svg" viewBox="0 0 100 100" width="100" height="100">
  <circle cx="50" cy="48" r="3" fill="#FFD86B"/>
  <line x1="50" y1="48" x2="30" y2="28" stroke="#FF89A7" stroke-width="2.5" stroke-linecap="round"/>
  <line x1="50" y1="48" x2="70" y2="28" stroke="#FF89A7" stroke-width="2.5" stroke-linecap="round"/>
  <line x1="50" y1="48" x2="22" y2="48" stroke="#FFD86B" stroke-width="2.5" stroke-linecap="round"/>
  <line x1="50" y1="48" x2="78" y2="48" stroke="#FFD86B" stroke-width="2.5" stroke-linecap="round"/>
  <line x1="50" y1="48" x2="30" y2="68" stroke="#FF89A7" stroke-width="2.5" stroke-linecap="round"/>
  <line x1="50" y1="48" x2="70" y2="68" stroke="#FF89A7" stroke-width="2.5" stroke-linecap="round"/>
  <line x1="50" y1="48" x2="50" y2="22" stroke="#FFB7B7" stroke-width="2.5" stroke-linecap="round"/>
  <line x1="50" y1="48" x2="50" y2="74" stroke="#FFB7B7" stroke-width="2.5" stroke-linecap="round"/>
  <circle cx="30" cy="28" r="2.5" fill="#FFD86B"/>
  <circle cx="70" cy="28" r="2.5" fill="#FFD86B"/>
  <circle cx="22" cy="48" r="2.5" fill="#FF89A7"/>
  <circle cx="78" cy="48" r="2.5" fill="#FF89A7"/>
  <circle cx="30" cy="68" r="2.5" fill="#FFD86B"/>
  <circle cx="70" cy="68" r="2.5" fill="#FFD86B"/>
  <circle cx="50" cy="22" r="2.5" fill="#FFB7B7"/>
  <circle cx="50" cy="74" r="2.5" fill="#FFB7B7"/>
  <text x="20" y="14" font-size="8" fill="#FFD86B">✨</text>
  <text x="78" y="86" font-size="8" fill="#FFB7B7">✨</text>
</svg>
