<svg xmlns="http://www.w3.org/2000/svg" viewBox="0 0 100 100" width="100" height="100">
  <ellipse cx="35" cy="35" rx="20" ry="22" fill="#FFB7B7" stroke="#2C2C2C" stroke-width="3" transform="rotate(-20 35 35)"/>
  <ellipse cx="65" cy="35" rx="20" ry="22" fill="#FFB7B7" stroke="#2C2C2C" stroke-width="3" transform="rotate(20 65 35)"/>
  <ellipse cx="32" cy="68" rx="14" ry="16" fill="#FFD86B" stroke="#2C2C2C" stroke-width="3" transform="rotate(-25 32 68)"/>
  <ellipse cx="68" cy="68" rx="14" ry="16" fill="#FFD86B" stroke="#2C2C2C" stroke-width="3" transform="rotate(25 68 68)"/>
  <circle cx="32" cy="32" r="3" fill="#FFFFFF"/>
  <circle cx="68" cy="32" r="3" fill="#FFFFFF"/>
  <circle cx="32" cy="68" r="2.5" fill="#FF9F43"/>
  <circle cx="68" cy="68" r="2.5" fill="#FF9F43"/>
  <ellipse cx="50" cy="50" rx="4" ry="22" fill="#2C2C2C"/>
  <line x1="48" y1="30" x2="42" y2="20" stroke="#2C2C2C" stroke-width="2" stroke-linecap="round"/>
  <line x1="52" y1="30" x2="58" y2="20" stroke="#2C2C2C" stroke-width="2" stroke-linecap="round"/>
  <circle cx="42" cy="20" r="2" fill="#2C2C2C"/>
  <circle cx="58" cy="20" r="2" fill="#2C2C2C"/>
</svg>
