<svg xmlns="http://www.w3.org/2000/svg" viewBox="0 0 100 100" width="100" height="100">
  <!-- Soft pink ground / shadow -->
  <ellipse cx="50" cy="78" rx="28" ry="5" fill="#FFC8D6" opacity="0.55"/>
  <!-- Cluster of seed grains: each is a small almond-shaped path,
       sandy-brown fill + warm shading. Eight seeds slightly varied in tilt -->
  <g stroke="#8B5A2B" stroke-width="1.2" stroke-linejoin="round">
    <path d="M 32 56 q 0 -7 5 -8 q 5 1 5 8 q 0 5 -5 6 q -5 -1 -5 -6 z" fill="#FFD86B"/>
    <path d="M 46 54 q 0 -7 5 -8 q 5 1 5 8 q 0 5 -5 6 q -5 -1 -5 -6 z" fill="#FF9F43"/>
    <path d="M 60 56 q 0 -7 5 -8 q 5 1 5 8 q 0 5 -5 6 q -5 -1 -5 -6 z" fill="#FFD86B"/>
    <path d="M 38 66 q 0 -6 4 -7 q 4 1 4 7 q 0 4 -4 5 q -4 -1 -4 -5 z" fill="#FF9F43"/>
    <path d="M 50 66 q 0 -6 4 -7 q 4 1 4 7 q 0 4 -4 5 q -4 -1 -4 -5 z" fill="#FFD86B"/>
    <path d="M 62 66 q 0 -6 4 -7 q 4 1 4 7 q 0 4 -4 5 q -4 -1 -4 -5 z" fill="#FF9F43"/>
    <path d="M 26 66 q 0 -5 3.5 -6 q 3.5 1 3.5 6 q 0 3.5 -3.5 4.5 q -3.5 -1 -3.5 -4.5 z" fill="#FFD86B"/>
    <path d="M 70 66 q 0 -5 3.5 -6 q 3.5 1 3.5 6 q 0 3.5 -3.5 4.5 q -3.5 -1 -3.5 -4.5 z" fill="#FFD86B"/>
  </g>
  <!-- Sparkle accents -->
  <text x="78" y="22" font-size="9" fill="#FFD86B">✨</text>
  <text x="14" y="22" font-size="8" fill="#FFB7B7">·</text>
</svg>
