<svg xmlns="http://www.w3.org/2000/svg" viewBox="0 0 100 100" width="100" height="100">
  <path d="M 50 18 L 50 30 L 56 24 L 50 22 L 46 30 Z" fill="#6BCB77" stroke="#2C2C2C" stroke-width="2.5" stroke-linejoin="round"/>
  <ellipse cx="30" cy="58" rx="14" ry="22" fill="#FF9F43" stroke="#2C2C2C" stroke-width="3"/>
  <ellipse cx="50" cy="56" rx="18" ry="26" fill="#FF9F43" stroke="#2C2C2C" stroke-width="3"/>
  <ellipse cx="70" cy="58" rx="14" ry="22" fill="#FF9F43" stroke="#2C2C2C" stroke-width="3"/>
  <path d="M 36 48 L 30 56 L 36 64 Z" fill="#2C2C2C"/>
  <path d="M 64 48 L 70 56 L 64 64 Z" fill="#2C2C2C"/>
  <path d="M 38 70 Q 44 76 50 72 Q 56 76 62 70 L 60 74 L 56 72 L 50 76 L 44 72 L 40 74 Z" fill="#2C2C2C" stroke="#2C2C2C" stroke-width="1.5" stroke-linejoin="round"/>
  <ellipse cx="20" cy="50" rx="4" ry="8" fill="#FFEC8B" opacity="0.5" transform="rotate(-10 20 50)"/>
  <text x="14" y="22" font-size="14" fill="#B47FE0">✦</text>
  <text x="84" y="20" font-size="10" fill="#FFEC8B">✦</text>
</svg>
