<svg xmlns="http://www.w3.org/2000/svg" viewBox="0 0 100 100" width="100" height="100">
  <path d="M 50 82 C 30 64, 14 52, 14 36 C 14 24, 24 16, 34 16 C 42 16, 48 22, 50 28 C 52 22, 58 16, 66 16 C 76 16, 86 24, 86 36 C 86 52, 70 64, 50 82 Z"
        fill="#FF6B9F" stroke="#2C2C2C" stroke-width="3" stroke-linejoin="round"/>
  <path d="M 50 75 C 36 60, 24 50, 24 38 C 24 30, 30 26, 36 26 C 42 26, 46 32, 50 38 C 54 32, 58 26, 64 26 C 70 26, 76 30, 76 38 C 76 50, 64 60, 50 75 Z"
        fill="none" stroke="#FFFFFF" stroke-width="2" opacity="0.6"/>
  <ellipse cx="34" cy="32" rx="8" ry="5" fill="#FFFFFF" opacity="0.7" transform="rotate(-30 34 32)"/>
  <text x="14" y="22" font-size="12" fill="#FFB7B7">♡</text>
  <text x="80" y="20" font-size="10" fill="#FFB7B7">♡</text>
  <text x="20" y="86" font-size="10" fill="#FFB7B7">♡</text>
  <text x="78" y="84" font-size="12" fill="#FFB7B7">♡</text>
</svg>
