<svg xmlns="http://www.w3.org/2000/svg" viewBox="0 0 100 100" width="100" height="100">
  <ellipse cx="50" cy="22" rx="14" ry="20" fill="#FFB7B7" stroke="#FF89A7" stroke-width="2"/>
  <ellipse cx="29" cy="40" rx="14" ry="20" fill="#FFB7B7" stroke="#FF89A7" stroke-width="2" transform="rotate(-72 29 40)"/>
  <ellipse cx="71" cy="40" rx="14" ry="20" fill="#FFB7B7" stroke="#FF89A7" stroke-width="2" transform="rotate(72 71 40)"/>
  <ellipse cx="36" cy="68" rx="14" ry="20" fill="#FFB7B7" stroke="#FF89A7" stroke-width="2" transform="rotate(-144 36 68)"/>
  <ellipse cx="64" cy="68" rx="14" ry="20" fill="#FFB7B7" stroke="#FF89A7" stroke-width="2" transform="rotate(144 64 68)"/>
  <path d="M 50 22 L 50 38 M 29 40 L 39 48 M 71 40 L 61 48 M 36 68 L 44 56 M 64 68 L 56 56" stroke="#FF89A7" stroke-width="1.5" fill="none"/>
  <circle cx="50" cy="50" r="9" fill="#FFEC8B" stroke="#FF9F43" stroke-width="2"/>
  <circle cx="46" cy="47" r="2" fill="#FF9F43"/>
  <circle cx="53" cy="49" r="2" fill="#FF9F43"/>
  <circle cx="48" cy="53" r="1.5" fill="#FF9F43"/>
  <circle cx="14" cy="14" r="3" fill="#FFB7B7" opacity="0.6"/>
  <circle cx="86" cy="18" r="2.5" fill="#FFB7B7" opacity="0.6"/>
  <circle cx="20" cy="86" r="2" fill="#FFB7B7" opacity="0.6"/>
  <circle cx="84" cy="84" r="3" fill="#FFB7B7" opacity="0.6"/>
  <text x="78" y="14" font-size="8" fill="#FF89A7">✦</text>
</svg>
