<svg xmlns="http://www.w3.org/2000/svg" viewBox="0 0 100 100" width="100" height="100">
  <line x1="50" y1="48" x2="50" y2="92" stroke="#FFFFFF" stroke-width="6"/>
  <line x1="50" y1="48" x2="50" y2="92" stroke="#2C2C2C" stroke-width="2"/>
  <circle cx="50" cy="36" r="28" fill="#FFB7B7" stroke="#2C2C2C" stroke-width="3"/>
  <path d="M 50 14 Q 64 22 64 36 Q 64 50 50 58 Q 36 50 36 36 Q 36 22 50 14"
        fill="none" stroke="#FF89A7" stroke-width="3"/>
  <path d="M 50 22 Q 58 28 58 36 Q 58 44 50 50 Q 42 44 42 36 Q 42 28 50 22"
        fill="none" stroke="#FFFFFF" stroke-width="2.5"/>
  <ellipse cx="42" cy="28" rx="8" ry="5" fill="#FFFFFF" opacity="0.7" transform="rotate(-30 42 28)"/>
  <path d="M 42 92 Q 50 88 58 92 L 56 96 Q 50 94 44 96 Z" fill="#FFEC8B" stroke="#2C2C2C" stroke-width="2" stroke-linejoin="round"/>
  <text x="14" y="22" font-size="10" fill="#FFB7B7">♡</text>
  <text x="78" y="22" font-size="10" fill="#FFB7B7">♡</text>
</svg>
