<svg xmlns="http://www.w3.org/2000/svg" viewBox="0 0 100 100" width="100" height="100">
  <path d="M 10 75 A 40 40 0 0 1 90 75" fill="none" stroke="#FF6B9F" stroke-width="6" stroke-linecap="round"/>
  <path d="M 16 75 A 34 34 0 0 1 84 75" fill="none" stroke="#FF9F43" stroke-width="6" stroke-linecap="round"/>
  <path d="M 22 75 A 28 28 0 0 1 78 75" fill="none" stroke="#FFD86B" stroke-width="6" stroke-linecap="round"/>
  <path d="M 28 75 A 22 22 0 0 1 72 75" fill="none" stroke="#6BCB77" stroke-width="6" stroke-linecap="round"/>
  <path d="M 34 75 A 16 16 0 0 1 66 75" fill="none" stroke="#6BCBFF" stroke-width="6" stroke-linecap="round"/>
  <path d="M 40 75 A 10 10 0 0 1 60 75" fill="none" stroke="#B47FE0" stroke-width="6" stroke-linecap="round"/>
  <ellipse cx="14" cy="80" rx="10" ry="6" fill="#FFFFFF" stroke="#2C2C2C" stroke-width="2"/>
  <ellipse cx="86" cy="80" rx="10" ry="6" fill="#FFFFFF" stroke="#2C2C2C" stroke-width="2"/>
  <ellipse cx="20" cy="78" rx="6" ry="3" fill="#FFFFFF" opacity="0.7"/>
  <text x="44" y="38" font-size="14" fill="#FFFFFF" stroke="#FF89A7" stroke-width="0.5">✨</text>
  <text x="20" y="46" font-size="10" fill="#FFD86B">✦</text>
  <text x="76" y="48" font-size="10" fill="#FFD86B">✦</text>
</svg>
