<svg xmlns="http://www.w3.org/2000/svg" viewBox="0 0 200 200" width="200" height="200">
  <ellipse cx="100" cy="160" rx="70" ry="20" fill="#8B5A2B" stroke="#2C2C2C" stroke-width="3"/>
  <ellipse cx="80" cy="135" rx="6" ry="10" fill="#FFD86B" stroke="#2C2C2C" stroke-width="2" transform="rotate(-15 80 135)"/>
  <ellipse cx="100" cy="125" rx="6" ry="10" fill="#FFD86B" stroke="#2C2C2C" stroke-width="2"/>
  <ellipse cx="120" cy="135" rx="6" ry="10" fill="#FFD86B" stroke="#2C2C2C" stroke-width="2" transform="rotate(15 120 135)"/>
  <ellipse cx="70" cy="115" rx="6" ry="10" fill="#FF9F43" stroke="#2C2C2C" stroke-width="2" transform="rotate(-25 70 115)"/>
  <ellipse cx="90" cy="105" rx="6" ry="10" fill="#FF9F43" stroke="#2C2C2C" stroke-width="2" transform="rotate(-5 90 105)"/>
  <ellipse cx="110" cy="105" rx="6" ry="10" fill="#FF9F43" stroke="#2C2C2C" stroke-width="2" transform="rotate(5 110 105)"/>
  <ellipse cx="130" cy="115" rx="6" ry="10" fill="#FF9F43" stroke="#2C2C2C" stroke-width="2" transform="rotate(25 130 115)"/>
  <ellipse cx="85" cy="85" rx="5" ry="9" fill="#FFD86B" stroke="#2C2C2C" stroke-width="2"/>
  <ellipse cx="115" cy="85" rx="5" ry="9" fill="#FFD86B" stroke="#2C2C2C" stroke-width="2"/>
  <ellipse cx="100" cy="70" rx="5" ry="9" fill="#FF9F43" stroke="#2C2C2C" stroke-width="2"/>
</svg>
