<svg xmlns="http://www.w3.org/2000/svg" viewBox="0 0 200 200" width="200" height="200">
  <path d="M 30 130 Q 50 90 80 110 Q 110 130 140 90 Q 165 60 175 100" fill="none" stroke="#6BCB77" stroke-width="32" stroke-linecap="round"/>
  <path d="M 30 130 Q 50 90 80 110 Q 110 130 140 90 Q 165 60 175 100" fill="none" stroke="#2C2C2C" stroke-width="3" stroke-linecap="round"/>
  <path d="M 30 130 Q 50 90 80 110 Q 110 130 140 90 Q 165 60 175 100" fill="none" stroke="#FFFFFF" stroke-width="3" stroke-linecap="round" opacity="0.4" transform="translate(0 -8)"/>
  <line x1="55" y1="118" x2="55" y2="124" stroke="#2C2C2C" stroke-width="2"/>
  <line x1="80" y1="115" x2="80" y2="121" stroke="#2C2C2C" stroke-width="2"/>
  <line x1="105" y1="120" x2="105" y2="126" stroke="#2C2C2C" stroke-width="2"/>
  <line x1="130" y1="105" x2="130" y2="111" stroke="#2C2C2C" stroke-width="2"/>
  <line x1="155" y1="80" x2="155" y2="86" stroke="#2C2C2C" stroke-width="2"/>
  <circle cx="172" cy="92" r="3" fill="#2C2C2C"/>
  <line x1="170" y1="80" x2="166" y2="72" stroke="#2C2C2C" stroke-width="2.5" stroke-linecap="round"/>
  <line x1="178" y1="80" x2="180" y2="72" stroke="#2C2C2C" stroke-width="2.5" stroke-linecap="round"/>
  <circle cx="166" cy="70" r="2" fill="#2C2C2C"/>
  <circle cx="180" cy="70" r="2" fill="#2C2C2C"/>
</svg>
