<svg xmlns="http://www.w3.org/2000/svg" viewBox="0 0 200 200" width="200" height="200">
  <circle cx="100" cy="100" r="90" fill="#A88A4A" stroke="#2C2C2C" stroke-width="5"/>
  <circle cx="70" cy="80" r="8" fill="#2C2C2C"/>
  <circle cx="130" cy="80" r="8" fill="#2C2C2C"/>
  <circle cx="73" cy="77" r="3" fill="#FFFFFF"/>
  <circle cx="133" cy="77" r="3" fill="#FFFFFF"/>
  <path d="M 70 140 Q 100 130 130 140" fill="none" stroke="#2C2C2C" stroke-width="5" stroke-linecap="round"/>
  <ellipse cx="40" cy="50" rx="6" ry="4" fill="#2C2C2C"/>
  <line x1="34" y1="48" x2="30" y2="44" stroke="#2C2C2C" stroke-width="2"/>
  <line x1="46" y1="48" x2="50" y2="44" stroke="#2C2C2C" stroke-width="2"/>
  <line x1="34" y1="52" x2="30" y2="56" stroke="#2C2C2C" stroke-width="2"/>
  <line x1="46" y1="52" x2="50" y2="56" stroke="#2C2C2C" stroke-width="2"/>
  <ellipse cx="160" cy="60" rx="5" ry="3" fill="#2C2C2C"/>
  <line x1="155" y1="58" x2="151" y2="55" stroke="#2C2C2C" stroke-width="2"/>
  <line x1="165" y1="58" x2="169" y2="55" stroke="#2C2C2C" stroke-width="2"/>
  <line x1="155" y1="62" x2="151" y2="65" stroke="#2C2C2C" stroke-width="2"/>
  <line x1="165" y1="62" x2="169" y2="65" stroke="#2C2C2C" stroke-width="2"/>
  <path d="M 30 100 Q 25 115 30 130" fill="#6BCBFF" stroke="#2C2C2C" stroke-width="2"/>
  <ellipse cx="80" cy="180" rx="8" ry="3" fill="#5C4525" opacity="0.7"/>
  <ellipse cx="120" cy="180" rx="6" ry="2" fill="#5C4525" opacity="0.7"/>
</svg>
